<svg width="144" height="152" viewBox="0 0 144 152" fill="none" xmlns="http://www.w3.org/2000/svg">
<mask id="path-1-outside-1_29_6" maskUnits="userSpaceOnUse" x="3" y="27" width="69" height="98" fill="black">
<rect fill="white" x="3" y="27" width="69" height="98"/>
<path d="M15.9375 39.8125C22.0208 33.7708 29.3333 30.75 37.875 30.75C46.4167 30.75 53.7083 33.7708 59.75 39.8125C65.7917 45.8542 68.8125 53.1458 68.8125 61.6875V91.0625C68.8125 99.6042 65.7917 106.896 59.75 112.938C53.7083 118.979 46.4167 122 37.875 122C29.3333 122 22.0208 118.979 15.9375 112.938C9.89583 106.896 6.875 99.6042 6.875 91.0625V61.6875C6.875 53.1458 9.89583 45.8542 15.9375 39.8125ZM58.8125 91.0625V61.6875C58.8125 55.8958 56.7708 50.9583 52.6875 46.875C48.6042 42.7917 43.6667 40.75 37.875 40.75C32.0833 40.75 27.125 42.7917 23 46.875C18.9167 50.9583 16.875 55.8958 16.875 61.6875V91.0625C16.875 96.8542 18.9167 101.792 23 105.875C27.125 109.958 32.0833 112 37.875 112C43.6667 112 48.6042 109.958 52.6875 105.875C56.7708 101.792 58.8125 96.8542 58.8125 91.0625Z"/>
</mask>
<path d="M15.9375 39.8125C22.0208 33.7708 29.3333 30.75 37.875 30.75C46.4167 30.75 53.7083 33.7708 59.75 39.8125C65.7917 45.8542 68.8125 53.1458 68.8125 61.6875V91.0625C68.8125 99.6042 65.7917 106.896 59.75 112.938C53.7083 118.979 46.4167 122 37.875 122C29.3333 122 22.0208 118.979 15.9375 112.938C9.89583 106.896 6.875 99.6042 6.875 91.0625V61.6875C6.875 53.1458 9.89583 45.8542 15.9375 39.8125ZM58.8125 91.0625V61.6875C58.8125 55.8958 56.7708 50.9583 52.6875 46.875C48.6042 42.7917 43.6667 40.75 37.875 40.75C32.0833 40.75 27.125 42.7917 23 46.875C18.9167 50.9583 16.875 55.8958 16.875 61.6875V91.0625C16.875 96.8542 18.9167 101.792 23 105.875C27.125 109.958 32.0833 112 37.875 112C43.6667 112 48.6042 109.958 52.6875 105.875C56.7708 101.792 58.8125 96.8542 58.8125 91.0625Z" fill="#B3971A"/>
<path d="M15.9375 39.8125L13.8235 37.6839L13.8162 37.6912L15.9375 39.8125ZM59.75 39.8125L57.6287 41.9338L59.75 39.8125ZM59.75 112.938L57.6287 110.816L59.75 112.938ZM15.9375 112.938L13.8162 115.059L13.8235 115.066L15.9375 112.938ZM23 46.875L20.8895 44.7429L20.8841 44.7483L20.8787 44.7537L23 46.875ZM23 105.875L20.8787 107.996L20.8841 108.002L20.8895 108.007L23 105.875ZM52.6875 105.875L50.5662 103.754L52.6875 105.875ZM18.0515 41.9411C23.5752 36.4552 30.1287 33.75 37.875 33.75V27.75C28.5379 27.75 20.4664 31.0864 13.8235 37.6839L18.0515 41.9411ZM37.875 33.75C45.6208 33.75 52.1494 36.4546 57.6287 41.9338L61.8713 37.6912C55.2672 31.0871 47.2126 27.75 37.875 27.75V33.75ZM57.6287 41.9338C63.1079 47.4131 65.8125 53.9417 65.8125 61.6875H71.8125C71.8125 52.3499 68.4754 44.2953 61.8713 37.6912L57.6287 41.9338ZM65.8125 61.6875V91.0625H71.8125V61.6875H65.8125ZM65.8125 91.0625C65.8125 98.8083 63.1079 105.337 57.6287 110.816L61.8713 115.059C68.4754 108.455 71.8125 100.4 71.8125 91.0625H65.8125ZM57.6287 110.816C52.1494 116.295 45.6208 119 37.875 119V125C47.2126 125 55.2672 121.663 61.8713 115.059L57.6287 110.816ZM37.875 119C30.1287 119 23.5752 116.295 18.0515 110.809L13.8235 115.066C20.4664 121.664 28.5379 125 37.875 125V119ZM18.0588 110.816C12.5796 105.337 9.875 98.8083 9.875 91.0625H3.875C3.875 100.4 7.21209 108.455 13.8162 115.059L18.0588 110.816ZM9.875 91.0625V61.6875H3.875V91.0625H9.875ZM9.875 61.6875C9.875 53.9417 12.5796 47.4131 18.0588 41.9338L13.8162 37.6912C7.21209 44.2953 3.875 52.3499 3.875 61.6875H9.875ZM61.8125 91.0625V61.6875H55.8125V91.0625H61.8125ZM61.8125 61.6875C61.8125 55.1028 59.4566 49.4015 54.8088 44.7537L50.5662 48.9963C54.085 52.5152 55.8125 56.6889 55.8125 61.6875H61.8125ZM54.8088 44.7537C50.161 40.1059 44.4597 37.75 37.875 37.75V43.75C42.8736 43.75 47.0473 45.4775 50.5662 48.9963L54.8088 44.7537ZM37.875 37.75C31.291 37.75 25.5748 40.1049 20.8895 44.7429L25.1105 49.0071C28.6752 45.4784 32.8756 43.75 37.875 43.75V37.75ZM20.8787 44.7537C16.2309 49.4015 13.875 55.1028 13.875 61.6875H19.875C19.875 56.6889 21.6025 52.5152 25.1213 48.9963L20.8787 44.7537ZM13.875 61.6875V91.0625H19.875V61.6875H13.875ZM13.875 91.0625C13.875 97.6472 16.2309 103.349 20.8787 107.996L25.1213 103.754C21.6025 100.235 19.875 96.0611 19.875 91.0625H13.875ZM20.8895 108.007C25.5748 112.645 31.291 115 37.875 115V109C32.8756 109 28.6752 107.272 25.1105 103.743L20.8895 108.007ZM37.875 115C44.4597 115 50.161 112.644 54.8088 107.996L50.5662 103.754C47.0473 107.273 42.8736 109 37.875 109V115ZM54.8088 107.996C59.4566 103.349 61.8125 97.6472 61.8125 91.0625H55.8125C55.8125 96.0611 54.085 100.235 50.5662 103.754L54.8088 107.996Z" fill="#B3971A" mask="url(#path-1-outside-1_29_6)"/>
<mask id="path-3-outside-2_29_6" maskUnits="userSpaceOnUse" x="75" y="25" width="68" height="98" fill="black">
<rect fill="white" x="75" y="25" width="68" height="98"/>
<path d="M94.125 73.25C98.125 77.2917 102.979 79.3125 108.688 79.3125C115.729 79.3125 121.312 76.4375 125.438 70.6875L127 68.0625C128.5 65.1042 129.25 61.9792 129.25 58.6875C129.25 53.0208 127.25 48.1667 123.25 44.125C119.208 40.125 114.354 38.125 108.688 38.125C102.979 38.125 98.125 40.125 94.125 44.125C90.0833 48.1667 88.0625 53.0208 88.0625 58.6875C88.0625 64.3958 90.0833 69.25 94.125 73.25ZM106.938 120H95.1875L114.312 88.75C112.438 89.125 110.562 89.3125 108.688 89.3125C100.229 89.3125 93.0208 86.3125 87.0625 80.3125C81.0625 74.3542 78.0625 67.1458 78.0625 58.6875C78.0625 50.2708 81.0625 43.0625 87.0625 37.0625C93.0208 31.1042 100.229 28.125 108.688 28.125C117.104 28.125 124.312 31.1042 130.312 37.0625C136.271 43.0625 139.25 50.2708 139.25 58.6875C139.25 63.3958 138.229 67.8542 136.188 72.0625L136.25 72.125L135.75 72.9375C135.167 74.0625 134.479 75.1667 133.688 76.25L106.938 120Z"/>
</mask>
<path d="M94.125 73.25C98.125 77.2917 102.979 79.3125 108.688 79.3125C115.729 79.3125 121.312 76.4375 125.438 70.6875L127 68.0625C128.5 65.1042 129.25 61.9792 129.25 58.6875C129.25 53.0208 127.25 48.1667 123.25 44.125C119.208 40.125 114.354 38.125 108.688 38.125C102.979 38.125 98.125 40.125 94.125 44.125C90.0833 48.1667 88.0625 53.0208 88.0625 58.6875C88.0625 64.3958 90.0833 69.25 94.125 73.25ZM106.938 120H95.1875L114.312 88.75C112.438 89.125 110.562 89.3125 108.688 89.3125C100.229 89.3125 93.0208 86.3125 87.0625 80.3125C81.0625 74.3542 78.0625 67.1458 78.0625 58.6875C78.0625 50.2708 81.0625 43.0625 87.0625 37.0625C93.0208 31.1042 100.229 28.125 108.688 28.125C117.104 28.125 124.312 31.1042 130.312 37.0625C136.271 43.0625 139.25 50.2708 139.25 58.6875C139.25 63.3958 138.229 67.8542 136.188 72.0625L136.25 72.125L135.75 72.9375C135.167 74.0625 134.479 75.1667 133.688 76.25L106.938 120Z" fill="#B3971A"/>
<path d="M94.125 73.25L96.2573 71.1397L96.2463 71.1287L96.2353 71.1177L94.125 73.25ZM125.438 70.6875L127.875 72.4362L127.95 72.3321L128.015 72.222L125.438 70.6875ZM127 68.0625L129.578 69.597L129.63 69.5097L129.676 69.4192L127 68.0625ZM123.25 44.125L125.382 42.0147L125.371 42.0037L125.36 41.9927L123.25 44.125ZM94.125 44.125L92.0037 42.0037L94.125 44.125ZM106.938 120V123H108.62L109.497 121.565L106.938 120ZM95.1875 120L92.6287 118.434L89.8343 123H95.1875V120ZM114.312 88.75L116.871 90.316L120.454 84.4623L113.724 85.8083L114.312 88.75ZM87.0625 80.3125L89.1912 78.1986L89.1838 78.1912L89.1764 78.1838L87.0625 80.3125ZM87.0625 37.0625L84.9412 34.9412L87.0625 37.0625ZM130.312 37.0625L132.441 34.9486L132.434 34.9412L132.426 34.9338L130.312 37.0625ZM136.188 72.0625L133.488 70.753L132.556 72.674L134.066 74.1838L136.188 72.0625ZM136.25 72.125L138.805 73.6973L140.047 71.6792L138.371 70.0037L136.25 72.125ZM135.75 72.9375L133.195 71.3652L133.137 71.4589L133.087 71.5565L135.75 72.9375ZM133.688 76.25L131.265 74.4799L131.192 74.5797L131.128 74.6851L133.688 76.25ZM91.9927 75.3603C96.5586 79.9738 102.182 82.3125 108.688 82.3125V76.3125C103.777 76.3125 99.6914 74.6096 96.2573 71.1397L91.9927 75.3603ZM108.688 82.3125C116.702 82.3125 123.19 78.967 127.875 72.4362L123 68.9388C119.435 73.908 114.757 76.3125 108.688 76.3125V82.3125ZM128.015 72.222L129.578 69.597L124.422 66.528L122.86 69.153L128.015 72.222ZM129.676 69.4192C131.387 66.0437 132.25 62.4543 132.25 58.6875H126.25C126.25 61.504 125.613 64.1646 124.324 66.7058L129.676 69.4192ZM132.25 58.6875C132.25 52.2275 129.936 46.6159 125.382 42.0147L121.118 46.2353C124.564 49.7175 126.25 53.8142 126.25 58.6875H132.25ZM125.36 41.9927C120.759 37.439 115.148 35.125 108.688 35.125V41.125C113.561 41.125 117.658 42.811 121.14 46.2573L125.36 41.9927ZM108.688 35.125C102.192 35.125 96.572 37.4353 92.0037 42.0037L96.2463 46.2463C99.678 42.8147 103.767 41.125 108.688 41.125V35.125ZM92.0037 42.0037C87.4049 46.6025 85.0625 52.2175 85.0625 58.6875H91.0625C91.0625 53.8242 92.7618 49.7309 96.2463 46.2463L92.0037 42.0037ZM85.0625 58.6875C85.0625 65.1934 87.4012 70.8164 92.0147 75.3823L96.2353 71.1177C92.7655 67.6836 91.0625 63.5983 91.0625 58.6875H85.0625ZM106.938 117H95.1875V123H106.938V117ZM97.7463 121.566L116.871 90.316L111.754 87.184L92.6287 118.434L97.7463 121.566ZM113.724 85.8083C112.039 86.1453 110.361 86.3125 108.688 86.3125V92.3125C110.764 92.3125 112.836 92.1047 114.901 91.6917L113.724 85.8083ZM108.688 86.3125C101.028 86.3125 94.5861 83.6313 89.1912 78.1986L84.9338 82.4264C91.4555 88.9937 99.4302 92.3125 108.688 92.3125V86.3125ZM89.1764 78.1838C83.7437 72.7888 81.0625 66.3468 81.0625 58.6875H75.0625C75.0625 67.9448 78.3813 75.9195 84.9486 82.4412L89.1764 78.1838ZM81.0625 58.6875C81.0625 51.0737 83.7413 44.6264 89.1838 39.1838L84.9412 34.9412C78.3837 41.4986 75.0625 49.4679 75.0625 58.6875H81.0625ZM89.1838 39.1838C94.5771 33.7905 101.021 31.125 108.688 31.125V25.125C99.4369 25.125 91.4645 28.4178 84.9412 34.9412L89.1838 39.1838ZM108.688 31.125C116.308 31.125 122.758 33.788 128.199 39.1912L132.426 34.9338C125.867 28.4203 117.9 25.125 108.688 25.125V31.125ZM128.184 39.1764C133.587 44.6174 136.25 51.067 136.25 58.6875H142.25C142.25 49.4747 138.955 41.5076 132.441 34.9486L128.184 39.1764ZM136.25 58.6875C136.25 62.9453 135.331 66.9556 133.488 70.753L138.887 73.372C141.128 68.7527 142.25 63.8464 142.25 58.6875H136.25ZM134.066 74.1838L134.129 74.2463L138.371 70.0037L138.309 69.9412L134.066 74.1838ZM133.695 70.5527L133.195 71.3652L138.305 74.5098L138.805 73.6973L133.695 70.5527ZM133.087 71.5565C132.578 72.5382 131.972 73.5128 131.265 74.4799L136.11 78.0201C136.986 76.8205 137.756 75.5868 138.413 74.3185L133.087 71.5565ZM131.128 74.6851L104.378 118.435L109.497 121.565L136.247 77.8149L131.128 74.6851Z" fill="#B3971A" mask="url(#path-3-outside-2_29_6)"/>
<path d="M69 22V128" stroke="black" stroke-width="13" stroke-linecap="round"/>
</svg>
